<svg width="118" height="117" viewBox="0 0 118 117" fill="none" xmlns="http://www.w3.org/2000/svg">
<g id="check-circle">
<g id="Icon">
<path d="M59 107.25C85.9239 107.25 107.75 85.4239 107.75 58.5C107.75 31.5761 85.9239 9.75 59 9.75C32.0761 9.75 10.25 31.5761 10.25 58.5C10.25 85.4239 32.0761 107.25 59 107.25Z" fill="white"/>
<path d="M37.0625 58.5L51.6875 73.125L80.9375 43.875M107.75 58.5C107.75 85.4239 85.9239 107.25 59 107.25C32.0761 107.25 10.25 85.4239 10.25 58.5C10.25 31.5761 32.0761 9.75 59 9.75C85.9239 9.75 107.75 31.5761 107.75 58.5Z" stroke="#38A169" stroke-width="4" stroke-linecap="round" stroke-linejoin="round"/>
</g>
</g>
</svg>
