<svg width="20" height="20" viewBox="0 0 20 20" fill="none" xmlns="http://www.w3.org/2000/svg">
<g id="user-01">
<path id="Icon" d="M16.2223 17C16.2223 15.9146 16.2223 15.3718 16.0883 14.9302C15.7867 13.9359 15.0086 13.1578 14.0143 12.8562C13.5727 12.7222 13.0299 12.7222 11.9445 12.7222H8.05561C6.97017 12.7222 6.42745 12.7222 5.98583 12.8562C4.99152 13.1578 4.21342 13.9359 3.9118 14.9302C3.77783 15.3718 3.77783 15.9146 3.77783 17M13.5001 6.5C13.5001 8.433 11.9331 10 10.0001 10C8.06706 10 6.50005 8.433 6.50005 6.5C6.50005 4.567 8.06706 3 10.0001 3C11.9331 3 13.5001 4.567 13.5001 6.5Z" stroke="black" stroke-opacity="0.8" stroke-width="2.33333" stroke-linecap="round" stroke-linejoin="round"/>
</g>
</svg>
